<svg xmlns="http://www.w3.org/2000/svg" viewBox="0 0 424.67 485.97"><g id="Layer_2" data-name="Layer 2"><path d="M945.89,342.7c16.56,16.49,38.1,23.24,53.87,16.57,10.39-4.38,18.16-14.54,19.07-15.74a46.08,46.08,0,0,0,9.12-19.9c.83-4.65,3.48-19.49-5-28.18-9.75-10-27.91-5.32-35.64-3.31-15.12,3.91-25,12.61-33.15,19.89-13.82,12.38-20.89,23.84-24,28.18-25.71,35.39-89.83,9.24-122.68,33.16-55.37,40.31,2.07,205.48,1.66,205.56-.2,0-5.9-41.43-10.77-109.41-1.94-27-3.76-58.45,14.92-75.43A56.55,56.55,0,0,1,824,386.63c18-9.84,31.69-5.62,53.05-6.63,18.64-.89,49.16-2.35,64.65-21.55,5.33-6.61,6.66-12.55,17.18-24.19a97,97,0,0,1,19.29-16.43c9.6-6.2,17.77-11.49,23.21-8.29,4.48,2.64,5.71,10.23,4.15,15.75-2.44,8.58-11.64,12.27-18.24,14.92C971.35,346.62,955.82,344.94,945.89,342.7Z" transform="translate(-783.37 -289.27)"/><path d="M1183.52,647.19c-8,5.32-16.47,4.92-19.69,4.72-3.47-.21-15.46-.94-22.84-10.24-5.22-6.59-5.39-14-5.51-19.69-.45-20.58,12.09-35.36,15-38.59,5.24-5.88,18.34-20.58,30.72-18.11,20.18,4,27.82,51.52,26.78,81.91-.49,14.44-1.87,44.51-22.84,73.25-16.79,23-37.81,33.77-47.6,38.65-17,8.49-31.52,11.32-42.53,13.39-6.31,1.18-26,4.57-67.39,1.51A542.32,542.32,0,0,1,952,763c29.72.93,54.5.18,72.46-.79,73.63-4,96.51-14.91,105.54-19.69,11.8-6.25,28.68-15.43,41.74-34.66,11.94-17.56,14.94-35.06,18.12-53.55,3.08-17.95,2.47-30.25.78-40.17-2-11.57-4.45-26.16-12.6-28.36-9.23-2.48-21.41,12.1-26,24.42-1.83,4.93-5,13.49-.79,20.48,5.87,9.72,21.44,8.75,22.84,8.66,11.46-.73,18.24-8,19.69-6.3S1190.54,642.5,1183.52,647.19Z" transform="translate(-783.37 -289.27)"/></g><g id="Layer_4" data-name="Layer 4"><path d="M861,533c.75-15.56,1.7-18.41,2.68-33.95.49-7.92,1.48-23.61.89-37.53A191.31,191.31,0,0,0,853,404.36a71.62,71.62,0,0,1,17.87,4.47c13.41,5.29,22.57,13.72,37.53,31.27a544.1,544.1,0,0,1,34.85,45.57A186.91,186.91,0,0,0,970,457.08c6.23-8.27,8.52-12.81,21.44-30.38,8.12-11.05,13.35-17.45,22.34-22.34A52.07,52.07,0,0,1,1029,399a197.7,197.7,0,0,0-11.62,38.42c-1.12,5.85-1.94,12.84-3.57,26.81-2.25,19.3-3.38,28.94-3.57,38.42-.2,9.77.45,8.69.89,32.17.39,21.14-.09,24.48-.89,27.7-1.68,6.74-5.75,17-17,27.7A120.65,120.65,0,0,0,996.83,567c.27-4.91.14-7.92,0-13.4-.34-13.89-.19-24.37,0-37.53.16-11.25.49-19.36.9-29.48.55-13.84,1.21-25.68,1.78-34.85-9.74,11.67-17.27,21.18-22.34,27.7a205.47,205.47,0,0,1-16.08,18.76c-8.47,8.71-12.8,13.07-17,13.41-9.08.72-17-10.6-27.7-25.92-7.7-11-8.1-14.27-15.19-23.23a114.37,114.37,0,0,0-18.76-18.76,199.77,199.77,0,0,1,0,35.74c-1.93,21.23-6.06,27.79-7.15,51.82-.52,11.49-.12,22,0,25,.47,11.3,1.46,19.67,1.79,22.34.89,7.25,1.88,15.23,3.57,21.45,2,7.19,7.14,20.28,23.23,34-7.4-2-20.29-6.8-29.48-18.76a56.87,56.87,0,0,1-8-15.19c-2.13-5.51-4.28-13-5.36-31.28A321.21,321.21,0,0,1,861,533Z" transform="translate(-783.37 -289.27)"/><path d="M846,565" transform="translate(-783.37 -289.27)"/><path d="M1013,454" transform="translate(-783.37 -289.27)"/><path d="M1070,475" transform="translate(-783.37 -289.27)"/><path d="M1109.07,589.82c-.77,15.55-1.71,18.41-2.7,33.95-.5,7.92-1.5,23.6-.91,37.53a191.39,191.39,0,0,0,11.59,57.19,71.62,71.62,0,0,1-17.87-4.47c-13.41-5.3-22.56-13.73-37.51-31.3a543.54,543.54,0,0,1-34.83-45.59A187.09,187.09,0,0,0,1000,665.71c-6.24,8.28-8.53,12.81-21.46,30.37-8.13,11-13.35,17.45-22.35,22.33A52.07,52.07,0,0,1,941,723.77a197.15,197.15,0,0,0,11.63-38.42c1.13-5.85,2-12.83,3.59-26.81,2.26-19.29,3.4-28.94,3.59-38.42.21-9.77-.45-8.69-.87-32.16-.39-21.14.1-24.49.9-27.7,1.69-6.75,5.76-17,17-27.69a120.27,120.27,0,0,0-3.59,23.23c-.27,4.91-.14,7.92,0,13.4.34,13.89.18,24.37,0,37.53-.16,11.25-.49,19.36-.9,29.48-.57,13.84-1.23,25.68-1.81,34.85,9.75-11.66,17.29-21.17,22.35-27.69a206.65,206.65,0,0,1,16.1-18.75c8.48-8.71,12.8-13.07,17-13.4,9.09-.72,17,10.61,27.69,25.93,7.7,11,8.09,14.27,15.18,23.24a114.54,114.54,0,0,0,18.75,18.77,199.41,199.41,0,0,1,0-35.74c1.94-21.23,6.07-27.79,7.17-51.82.53-11.48.14-22,0-25-.47-11.3-1.45-19.66-1.78-22.34-.89-7.25-1.87-15.23-3.56-21.45-2-7.19-7.13-20.29-23.22-34,7.4,2,20.3,6.81,29.48,18.78a56.94,56.94,0,0,1,8,15.19c2.13,5.5,4.27,13,5.35,31.28A322.74,322.74,0,0,1,1109.07,589.82Z" transform="translate(-783.37 -289.27)"/></g></svg>