<svg id="visual" viewBox="0 0 900 600" width="900" height="600" xmlns="http://www.w3.org/2000/svg" xmlns:xlink="http://www.w3.org/1999/xlink" version="1.1"><g transform="translate(435.8163866225681 336.93297942752554)"><path d="M162.1 -217.7C199.5 -161.8 212 -100.7 231.4 -34.4C250.7 31.9 276.9 103.5 256.4 156.4C235.8 209.4 168.5 243.8 107.3 244C46.1 244.2 -9 210.2 -64.7 186.2C-120.4 162.3 -176.7 148.4 -207 111.8C-237.4 75.2 -241.8 15.9 -228.1 -36.5C-214.5 -88.9 -182.8 -134.5 -141.7 -189.7C-100.7 -245 -50.4 -310 6 -317.2C62.4 -324.3 124.7 -273.6 162.1 -217.7" fill="#6600FF"></path></g></svg>