<svg width="956" height="1093" viewBox="0 0 956 1093" fill="none" xmlns="http://www.w3.org/2000/svg">
<path d="M852.468 592.5C852.468 680.589 725.541 752 568.968 752C412.396 752 285.468 680.589 285.468 592.5C275.968 591 412.396 433 568.968 433C725.541 433 852.468 592.5 852.468 592.5Z" fill="#D9D9D9"/>
<path d="M570.701 1055.21C484.526 1073.47 388.348 964.112 355.882 810.943C323.416 657.773 366.956 518.797 453.131 500.531C452.628 490.927 635.483 591.627 667.949 744.796C700.415 897.966 570.701 1055.21 570.701 1055.21Z" fill="#D9D9D9"/>
<path d="M571.989 1059.26C485.839 1040.88 442.485 901.843 475.157 748.717C507.828 595.591 604.152 486.359 690.302 504.74C693.751 495.762 819.806 662.155 787.135 815.281C754.463 968.407 571.989 1059.26 571.989 1059.26Z" fill="#D9D9D9"/>
<path d="M642.4 589.144C729.298 603.582 782.283 720.364 760.746 849.983C739.209 979.601 651.305 1072.97 564.407 1058.53C561.621 1066.15 424.524 927.314 446.061 797.695C467.598 668.077 642.4 589.144 642.4 589.144Z" fill="#D9D9D9"/>
<path d="M759.5 380.5C759.5 405.533 747.298 429.427 728.915 451.215C710.535 472.999 686.014 492.632 661.471 509.132C636.931 525.63 612.389 538.982 593.979 548.211C584.775 552.825 577.105 556.408 571.737 558.837C569.053 560.051 566.945 560.977 565.508 561.599C564.79 561.91 564.239 562.145 563.868 562.302C563.714 562.368 563.591 562.42 563.5 562.458C563.409 562.42 563.286 562.368 563.132 562.302C562.761 562.145 562.21 561.91 561.492 561.599C560.055 560.977 557.947 560.051 555.263 558.837C549.895 556.408 542.225 552.825 533.021 548.211C514.611 538.982 490.069 525.63 465.529 509.132C440.986 492.632 416.465 472.999 398.085 451.215C379.702 429.427 367.5 405.533 367.5 380.5C367.5 280.018 455.217 198.5 563.5 198.5C671.783 198.5 759.5 280.018 759.5 380.5Z" fill="#D9D9D9" stroke="#A6A6A6"/>
<path d="M731 359.5C731 443.723 559.5 512 559.5 512C559.5 512 388 443.723 388 359.5C388 275.277 464.783 207 559.5 207C654.217 207 731 275.277 731 359.5Z" fill="#B3AAAA"/>
<path fill-rule="evenodd" clip-rule="evenodd" d="M621 481.939C587.571 500.824 559.5 512 559.5 512C559.5 512 535.789 502.56 506 486.371V342H621V481.939Z" fill="#CD9D90"/>
<path fill-rule="evenodd" clip-rule="evenodd" d="M573.472 466.231C552.106 486.288 530.739 499.252 530.739 499.252C530.739 499.252 507.649 489.69 483.48 473.117C490.538 456.314 506.724 443.923 526.39 442.418C546.057 440.913 563.939 450.698 573.472 466.231Z" fill="#CD9D90"/>
<path fill-rule="evenodd" clip-rule="evenodd" d="M637.458 472.388C612.332 487.471 588.706 495.621 588.706 495.621C588.706 495.621 568.162 481.391 548.045 460.08C558.498 445.151 576.939 436.464 596.479 439.154C616.019 441.844 631.427 455.19 637.458 472.388Z" fill="#CD9D90"/>
<ellipse cx="428.227" cy="220.79" rx="25.4307" ry="45.9913" transform="rotate(-10.2763 428.227 220.79)" fill="#E09F8E"/>
<ellipse cx="701.308" cy="230.766" rx="21" ry="42" transform="rotate(13.6329 701.308 230.766)" fill="#E09F8E"/>
<path d="M510.933 91.2936L448.06 43.1827C440.516 61.8201 426.029 97.7017 422.989 105.577L414.61 129.981L431.166 275.974L426.033 295.58L480.659 344.391L487.257 149.186L510.933 91.2936Z" fill="#E8BFB4"/>
<path d="M628.172 96.5148L678.523 41.1208C684.483 62.2998 695.928 103.075 698.329 112.025L704.937 139.771L691.236 306.336L695.268 328.64L651.499 384.759L646.88 162.299L628.172 96.5148Z" fill="#E8BFB4"/>
<ellipse cx="567" cy="250" rx="106" ry="180" fill="#E0AC9E"/>
<path d="M436 258.5L421.5 242.5C423.167 264.5 429.5 315.5 441.5 343.5C456.5 378.5 503 415.5 514 420.5C525 425.5 540 435.5 559.5 439.5C575.1 442.7 591.333 434.833 597.5 430.5L617 409.5C623.5 403.167 636.5 387.8 636.5 377C579.7 448.2 518.5 406.667 495 377L470 298.5L436 258.5Z" fill="black" stroke="black" stroke-width="5" stroke-linecap="round"/>
<path d="M690.972 262.697L705 247C703.388 268.583 697.26 318.617 685.651 346.087C671.14 380.424 626.153 416.723 615.512 421.628C604.87 426.533 590.358 436.344 571.493 440.268C556.401 443.408 540.696 435.69 534.73 431.439L515.865 410.836C509.577 404.623 497 389.548 497 378.952C551.951 448.803 611.158 408.057 633.893 378.952L658.079 301.939L690.972 262.697Z" fill="black" stroke="black" stroke-width="5" stroke-linecap="round"/>
<path d="M422.549 91.116C406.511 120.657 411.711 194.549 416.316 227.803L431.87 248.026C432.982 249.484 434.52 243.645 431.771 208.623C429.023 173.602 447.826 120.815 457.572 98.7997L439.671 67.7489C440.647 63.229 438.588 61.5746 422.549 91.116Z" fill="black" stroke="black"/>
<path d="M704.822 94.2073C720.86 123.859 715.655 198.053 711.048 231.444L695.492 251.758C694.38 253.223 692.843 247.361 695.593 212.196C698.344 177.031 679.543 124.041 669.799 101.942L687.702 70.7554C686.726 66.2178 688.785 64.5555 704.822 94.2073Z" fill="black" stroke="black"/>
<path d="M488.571 189.496C515.677 168.431 536.258 181.627 543.16 190.858L534.515 196.648C531.568 195.17 523.379 191.652 514.198 189.407C505.017 187.162 482.872 196.765 472.948 201.847C466.861 206.507 461.465 210.56 488.571 189.496Z" fill="black" stroke="black"/>
<path d="M499.783 185.214C516.63 175.893 530.193 182.724 534.868 187.305L529.471 189.836C527.54 189.054 522.189 187.161 516.235 185.849C510.281 184.537 496.316 188.527 490.078 190.686C486.293 192.746 482.935 194.535 499.783 185.214Z" fill="#262626"/>
<path d="M641.294 189.349C613.006 169.899 593.229 184.271 586.876 193.889L595.844 199.166C598.7 197.519 606.67 193.53 615.705 190.754C624.739 187.978 647.406 196.274 657.61 200.769C663.957 205.066 669.581 208.799 641.294 189.349Z" fill="black" stroke="black"/>
<path d="M632.68 186.046C615.992 176.451 602.326 183.06 597.578 187.564L602.932 190.182C604.875 189.432 610.254 187.627 616.226 186.412C622.198 185.197 636.091 189.415 642.291 191.676C646.04 193.797 649.368 195.64 632.68 186.046Z" fill="#262626"/>
<path d="M482 310.678C482 316.618 487 326.701 489.5 331C489.5 326.962 489.9 317.947 491.5 314.195C493.1 310.444 500.167 310.287 503.5 310.678L566 314.195V297H494C490 299.084 482 304.738 482 310.678Z" fill="black"/>
<path d="M650 310.678C650 316.618 645 326.701 642.5 331C642.5 326.962 642.1 317.947 640.5 314.195C638.9 310.444 631.833 310.287 628.5 310.678L566 314.195V297H638C642 299.084 650 304.738 650 310.678Z" fill="black"/>
<path d="M467.801 101.949L419 62.0448L447.016 37.4573C465.843 24.2902 518.771 -1.39904 579.863 1.18064C640.955 3.76031 692.076 46.0562 710 66.8816C699.758 73.7339 674.845 90.3405 657.132 101.949C585.918 136.452 501.239 116.325 467.801 101.949Z" fill="black" stroke="black"/>
<path d="M636.156 331.053C628.032 336.803 607.194 340.904 567.412 344C527.848 340.904 507.265 339.014 499.044 330.289C487.067 306.847 530.03 317.342 567.789 317.342C605.547 317.342 643.143 308.496 636.156 331.053Z" fill="#BD6452"/>
<path d="M636 322.467C636 327.557 606.359 332 567.291 332C528.222 332 500 327.557 500 322.467C504.484 314.841 528.222 319.29 567.291 319.29C607.144 318.972 627.033 315.477 636 322.467Z" fill="#F9F3DE"/>
<path d="M548.47 349.284C550.787 350.785 562.305 351.16 567.775 351.16V384H565.523C561.34 383.374 551.43 380.247 545.253 372.741C539.075 365.235 540.963 351.786 542.679 346C543.644 346.469 546.154 347.783 548.47 349.284Z" fill="black"/>
<path d="M584.708 349.284C582.446 350.785 571.202 351.16 565.862 351.16V384H568.061C572.144 383.374 581.818 380.247 587.849 372.741C593.879 365.235 592.036 351.786 590.361 346C589.419 346.469 586.969 347.783 584.708 349.284Z" fill="black"/>
<path d="M517.067 385.025C523.29 386.407 554.232 386.753 568.925 386.753V417H562.875C551.639 416.424 525.019 413.543 508.424 406.63C491.829 399.716 496.9 387.329 501.51 382C504.103 382.432 510.844 383.642 517.067 385.025Z" fill="black"/>
<path d="M614.411 385.025C608.336 386.407 578.131 386.753 563.788 386.753V417H569.694C580.662 416.424 606.649 413.543 622.848 406.63C639.047 399.716 634.098 387.329 629.598 382C627.067 382.432 620.486 383.642 614.411 385.025Z" fill="black"/>
<path d="M558.818 220.021C560.036 216.551 567.447 216.768 571 217.31C569.985 240.984 567.244 288.765 564.402 290.5C560.849 292.668 551.712 287.247 545.622 284.536C539.531 281.826 545.622 269.898 548.159 259.598C550.697 249.297 557.296 224.358 558.818 220.021Z" fill="#CD9D90"/>
<path d="M573.747 220.021C572.572 216.551 565.426 216.768 562 217.31C562.979 240.984 565.622 288.765 568.363 290.5C571.789 292.668 580.599 287.247 586.472 284.536C592.345 281.826 586.472 269.898 584.025 259.598C581.578 249.297 575.215 224.358 573.747 220.021Z" fill="#CD9D90"/>
<ellipse cx="566.5" cy="287" rx="8.5" ry="5" fill="#CD9D90"/>
<path d="M533 220.5C533 225.747 522.703 230 510 230C497.297 230 487 220.5 487 220.5C487 220.5 497.297 211 510 211C522.703 211 533 215.253 533 220.5Z" fill="#D9D9D9"/>
<path d="M596 222.5C596 227.747 606.297 232 619 232C631.703 232 642 222.5 642 222.5C642 222.5 631.703 213 619 213C606.297 213 596 217.253 596 222.5Z" fill="#D9D9D9"/>
<path fill-rule="evenodd" clip-rule="evenodd" d="M626.983 230.813C629.453 228.621 631 225.484 631 222C631 219.216 630.012 216.653 628.355 214.617C625.497 213.653 622.331 213 619 213C615.531 213 612.241 213.317 609.291 213.885C607.248 216.022 606 218.871 606 222C606 225.784 607.825 229.159 610.675 231.359C613.257 231.773 616.064 232 619 232C621.807 232 624.497 231.536 626.983 230.813Z" fill="#323232"/>
<path fill-rule="evenodd" clip-rule="evenodd" d="M502.017 228.813C499.547 226.621 498 223.484 498 220C498 217.216 498.988 214.653 500.645 212.617C503.503 211.653 506.669 211 510 211C513.469 211 516.759 211.317 519.709 211.885C521.752 214.022 523 216.871 523 220C523 223.784 521.175 227.159 518.325 229.359C515.743 229.773 512.936 230 510 230C507.193 230 504.503 229.536 502.017 228.813Z" fill="#323232"/>
<circle cx="618.5" cy="222.5" r="4.5" fill="black"/>
<circle cx="510.5" cy="220.5" r="4.5" fill="black"/>
<circle cx="513" cy="217" r="1" fill="#D9D9D9"/>
<circle cx="622" cy="219" r="1" fill="#D9D9D9"/>
<path d="M495 62.9164C495 74.3891 488.462 92 472.942 92C457.421 92 459.193 88.4226 442.724 67.6495C432.602 50.9798 383.111 7.26352 466.898 42.1434C482.418 42.1434 495 51.4438 495 62.9164Z" fill="black"/>
<path d="M487.146 220C492.884 224.405 507.322 232.205 519.179 228.163C529.014 224.809 532.731 222.116 533.712 220.703C533.817 220.455 533.914 220.219 534 220C534 220.177 533.914 220.413 533.712 220.703C532.263 224.122 529.081 230.014 525.872 230.884C521.569 232.05 509.139 237.491 497.186 230.495C487.624 224.898 486.509 221.166 487.146 220Z" fill="#E09F8E"/>
<path d="M641.854 222C636.116 226.405 621.678 234.205 609.821 230.163C599.986 226.809 596.269 224.116 595.288 222.703C595.183 222.455 595.086 222.219 595 222C595 222.177 595.086 222.413 595.288 222.703C596.737 226.122 599.919 232.014 603.128 232.884C607.431 234.05 619.861 239.491 631.814 232.495C641.376 226.898 642.491 223.166 641.854 222Z" fill="#E09F8E"/>
<path d="M616.253 294.106C610.719 292.102 598.041 284.919 591.602 272.211C589.59 267.918 586.269 260.62 589.087 265.772C591.904 270.923 600.322 278.508 604.179 281.656C608.204 284.661 617.792 289.358 622.793 290.671C629.333 292.388 640.401 294.106 647.444 295.823C653.078 297.197 654.152 302.405 653.984 304.838L649.959 316C650.63 313.997 651.569 308.959 649.959 304.838C648.349 300.717 640.233 298.256 636.376 297.54L616.253 294.106Z" fill="#E09F8E"/>
<path d="M515.747 294.369C521.281 292.481 533.959 285.712 540.398 273.738C542.41 269.692 545.731 262.815 542.913 267.67C540.096 272.524 531.678 279.671 527.821 282.637C523.796 285.469 514.208 289.895 509.207 291.133C502.667 292.751 491.599 294.369 484.556 295.987C478.922 297.281 477.848 302.19 478.016 304.482L482.041 315C481.37 313.112 480.431 308.366 482.041 304.482C483.651 300.599 491.767 298.279 495.624 297.605L515.747 294.369Z" fill="#E09F8E"/>
<path d="M519.623 524C515.79 525 507.723 534.5 506.123 564.5C504.123 602 527.123 647 525.123 668C523.523 684.8 520.79 702.667 519.623 709.5" stroke="black" stroke-width="5" stroke-linecap="round"/>
<path d="M597 524C603.667 530.833 616.8 547.6 616 560C615 575.5 606 604.5 611 625C616 645.5 622 670 621 693.5C620.2 712.3 620.667 712.333 621 710" stroke="black" stroke-width="5" stroke-linecap="round"/>
<rect x="170.315" y="688.948" width="247.987" height="122.668" transform="rotate(-42.2696 170.315 688.948)" fill="#D9D9D9"/>
<rect x="656" y="864.613" width="39.4627" height="63" transform="rotate(-23.5796 656 864.613)" fill="#E0AC9E"/>
<rect x="851.562" y="592" width="176.041" height="100.713" transform="rotate(65.3857 851.562 592)" fill="#D9D9D9"/>
<rect x="670.945" y="835.624" width="266.504" height="99.9994" rx="28" transform="rotate(-23.3489 670.945 835.624)" fill="#D9D9D9"/>
<path d="M273 726.5C273 759.913 259 788 219 793C197 789.5 189.5 779 160.5 728C113 655.5 186.848 666 217.5 666C248.152 666 273 693.087 273 726.5Z" fill="#D9D9D9"/>
<rect x="648.998" y="856.978" width="14.371" height="78.2066" rx="7.18548" transform="rotate(-20.4907 648.998 856.978)" fill="#CAC9C9"/>
<rect x="486.22" y="849" width="14.371" height="78.2066" rx="7.18548" transform="rotate(11.2218 486.22 849)" fill="#CAC9C9"/>
<rect x="57" y="512.398" width="67.6139" height="63" transform="rotate(-30.5797 57 512.398)" fill="#E0AC9E"/>
<path d="M75.5016 430.014C85.601 424.311 98.4107 427.876 104.113 437.975L116.22 459.418C128.066 480.398 120.661 507.008 99.6815 518.854L95.1893 521.39C77.3952 531.437 54.8256 525.157 44.7787 507.363L29.4146 480.152C23.7123 470.052 27.2768 457.242 37.3761 451.54L75.5016 430.014Z" fill="#E8BFB4"/>
<rect y="433.734" width="12.7125" height="66.9903" rx="6.35624" transform="rotate(-37.4727 0 433.734)" fill="#E8BFB4"/>
<path d="M15.7163 412.883C13.6638 409.873 14.44 405.769 17.45 403.716V403.716C20.46 401.664 24.5638 402.44 26.6163 405.45L60.57 455.244C62.6225 458.254 61.8463 462.358 58.8363 464.41V464.41C55.8264 466.462 51.7225 465.686 49.67 462.676L15.7163 412.883Z" fill="#E8BFB4"/>
<path d="M37.631 389.086C36.1779 385.317 38.055 381.084 41.8235 379.631V379.631C45.592 378.178 49.8249 380.055 51.278 383.824L79.1836 456.195C80.6366 459.964 78.7596 464.197 74.9911 465.65V465.65C71.2226 467.103 66.9897 465.226 65.5366 461.457L37.631 389.086Z" fill="#E8BFB4"/>
<rect x="67" y="373.461" width="13.0588" height="78.1583" rx="6.52941" transform="rotate(-10.8613 67 373.461)" fill="#E8BFB4"/>
<path d="M105.304 412.766C105.136 408.813 108.205 405.472 112.158 405.304V405.304C116.111 405.136 119.452 408.205 119.62 412.158L122.621 482.789C122.789 486.742 119.72 490.083 115.767 490.251V490.251C111.814 490.419 108.473 487.35 108.305 483.397L105.304 412.766Z" fill="#E8BFB4"/>
<rect x="147.746" y="498" width="227.991" height="99.9994" rx="31" transform="rotate(61.338 147.746 498)" fill="#D9D9D9"/>
<ellipse cx="568.5" cy="1020" rx="133.5" ry="43" fill="#D9D9D9"/>
</svg>
